<svg width="120" height="120" viewBox="0 0 120 120" fill="none" xmlns="http://www.w3.org/2000/svg">
	<path d="M33.4242 91.9728C39.0646 82.0457 27.1258 77.4958 20.4513 76.4617C12.5548 76.4617 10.0165 68.2831 17.067 63.2068C24.1175 58.1304 29.7579 55.3103 21.2974 45.7216C12.8368 36.1329 20.2119 33.0307 22.9895 33.0307C28.6299 33.0307 33.9049 39.6057 41.3207 25.1342C44.8062 18.3325 51.0106 18.8966 55.5229 22.2808C60.0352 25.665 68.1126 25.9802 70.0867 20.3398C72.0609 14.6995 75.1631 11.5972 81.0855 11.0332C87.0079 10.4692 85.8798 17.2376 82.2136 20.3398C78.5473 23.4421 71.7789 34.4408 87.854 31.6206C103.929 28.8004 96.4158 42.8682 95.2877 48.5086C94.1596 54.149 101.492 53.867 102.338 61.7635C103.412 71.7842 94.4416 72.1982 91.8022 73.9236C90.1498 75.0037 83.7249 81.7869 85.135 88.5554C85.9715 92.5708 85.417 103.784 79.7766 105.477C76.3924 106.887 72.4441 105.195 71.598 101.528C70.8822 98.4261 74.9823 92.5036 74.4182 89.9655C72.5819 81.7018 65.6756 85.7352 62.8554 89.9655C61.1925 92.4599 57.4971 93.9137 53.5488 92.2216C50.0231 90.7106 41.3207 87.1785 43.2949 95.075C45.269 102.972 41.5232 110.238 34.9355 109.989C30.4796 109.821 26.3737 104.382 33.4242 91.9728Z" fill="white"/>
	<path d="M104.505 93.5196C97.6431 96.3424 94.8524 88.479 97.0942 85.9101C102.674 81.2167 105.524 83.6515 105.524 83.6515C106.909 84.2644 113.083 89.9911 104.505 93.5196Z" fill="white" stroke="white"/>
	<path d="M19.0949 94.645C14.2675 98.3232 10.4232 92.7452 11.6565 90.2507C15.081 85.3774 17.8389 86.6814 17.8389 86.6814C19.0603 86.8674 25.1291 90.0472 19.0949 94.645Z" fill="white" stroke="white"/>
	<path d="M26.1362 24.5323C23.4454 20.9884 27.7204 18.1027 29.5807 18.9965C33.1975 21.4936 32.1658 23.5437 32.1658 23.5437C32.0042 24.4486 29.4996 28.9621 26.1362 24.5323Z" fill="white" stroke="white"/>
	<path d="M103.768 48.6534C102.252 46.6566 104.661 45.0306 105.709 45.5342C107.747 46.9412 107.165 48.0963 107.165 48.0963C107.074 48.6062 105.663 51.1494 103.768 48.6534Z" fill="white" stroke="white"/>
</svg>
